<?xml version="1.0" encoding="utf-8"?>
<svg version="1.1" id="Layer_1" xmlns="http://www.w3.org/2000/svg" xmlns:xlink="http://www.w3.org/1999/xlink" x="0px" y="0px"
	 viewBox="0 0 1245.8 220.1" style="enable-background:new 0 0 1245.8 220.1;" xml:space="preserve">
<style type="text/css">
	.st0{fill:#34aec5;}
</style>
<path id="jkk" class="st0" d="M541.7,92.3l10.3-10.5v48.4c0,16.2-7.9,24.1-22.7,24.1c-8.6,0-16.5-3.8-21.2-10.5l6.4-6.5
	c3.9,5.6,8.7,8.1,14.8,8.1c8.2,0,12.4-5,12.4-14.7V92.3z M630.9,81.7H619l-32.2,33l6.1,7.3l27.8,32.2h12.2l-33-39.9L630.9,81.7z
	 M605.2,81.7h-11.8l-32.2,33l6.1,7.3l27.8,32.2h12.1l-33-39.9L605.2,81.7z M665.4,90.6c-0.8,0-1.6-0.5-2-1.2l-1.4,1.6
	c0.9,1,2.2,1.6,3.5,1.6c2.5,0,3.9-1.3,3.9-4v-7h-6.2v2h3.8v5.1C666.9,90,666.3,90.6,665.4,90.6L665.4,90.6z M672.7,92.5h-2.5
	l4.8-10.8h2.5l4.8,10.7h-2.6l-1-2.3h-5L672.7,92.5z M674.5,88.3h3.4l-1.7-4.1L674.5,88.3z M679.5,78.7h-2.6l-2.1,2.2h1.9L679.5,78.7
	z M685.9,92.5h-2.5V81.8h4.7c2.9,0,4.7,1.5,4.7,3.9c0.1,1.5-0.8,2.8-2.2,3.4l2.4,3.4h-2.7l-2.1-3h-2.2V92.5z M685.9,87.5h2
	c1.5,0,2.3-0.7,2.3-1.9s-0.8-1.9-2.3-1.9h-2V87.5z M697,86.2l3.2,5.2h1.1l3.2-5.3v6.5h2.3V81.7h-2l-4,6.7l-4-6.7h-2v10.8h2.3
	L697,86.2z M716.6,80.8l1.6-2.2h-2.3l-1.1,2.2H716.6z M714.1,92.7c3.1,0,4.9-1.8,4.9-4.9v-6h-2.5v5.9c0,2-0.9,2.9-2.4,2.9
	c-1.5,0-2.4-0.8-2.4-2.9v-5.9h-2.5v6C709.2,90.9,711,92.7,714.1,92.7L714.1,92.7z M715.1,78.7h-2.2l-1.1,2.2h1.8L715.1,78.7z
	 M723.9,81.7h-2.5v10.8h2.4L723.9,81.7z M728.9,92.5h-2.5V81.8h4.6c2.9,0,4.7,1.5,4.7,3.9s-1.8,3.9-4.7,3.9h-2.2V92.5z M728.9,87.5
	h2c1.5,0,2.3-0.7,2.3-1.9s-0.8-1.9-2.3-1.9h-2V87.5z M735.5,92.5l4.8-10.8h2.5l4.8,10.8H745l-1-2.3h-5l-1,2.3H735.5z M739.8,88.3
	h3.4l-1.7-4.1L739.8,88.3z M751.2,92.5h-2.5V81.8h4.7c2.9,0,4.7,1.5,4.7,3.9c0.1,1.5-0.8,2.8-2.2,3.4l2.4,3.5h-2.7l-2.1-3h-2.3V92.5
	z M751.2,87.5h2c1.5,0,2.3-0.7,2.3-1.9s-0.8-1.9-2.3-1.9h-2V87.5z M762.5,81.7H760v10.8h2.5V81.7z M663.1,108.1l2.2-2.2l4.4,5h1.4
	l-5-5.9l4.6-4.9h-1.3l-6.3,6.5v-6.5H662v10.8h1.1L663.1,108.1z M672.4,100.2v6.2c0,3.1,1.7,4.7,4.4,4.7s4.4-1.6,4.4-4.7v-6.2h-1.1
	v6.1c0,2.5-1.2,3.7-3.3,3.7s-3.3-1.2-3.3-3.7v-6.1H672.4z M686.2,110.9h1.1v-9.8h3.8v-1h-8.7v1h3.8V110.9z M701.3,110.9h-1.2
	l-1.3-2.9h-6l-1.3,2.9h-1.2l4.9-10.8h1.1L701.3,110.9z M698.4,107.1l-2.5-5.7l-2.6,5.8L698.4,107.1z M705.5,110.9v-9.8h3.8v-1h-8.7
	v1h3.8v9.8H705.5z M717.9,97.4h-1.5l-2.1,1.9h1.1L717.9,97.4z M715.3,100.1c3,0.1,5.4,2.6,5.3,5.6c-0.1,3-2.6,5.4-5.6,5.3
	c-3-0.1-5.3-2.5-5.3-5.5c0-3,2.4-5.4,5.4-5.5C715.1,100.1,715.2,100.1,715.3,100.1L715.3,100.1z M715.3,101.1c-2.5,0-4.4,2-4.4,4.5
	c0,2.5,2,4.4,4.5,4.4c2.5,0,4.4-2,4.4-4.5c0-2.4-1.9-4.4-4.3-4.4C715.4,101.1,715.4,101.1,715.3,101.1L715.3,101.1z M731.9,100.2
	h-1.3l-6.3,6.5v-6.5h-1.2v10.8h1.1v-2.8l2.2-2.2l4.4,5h1.4l-5-5.9L731.9,100.2z M736.1,98.3c0,0.4,0.4,0.6,0.7,0.6
	c0.3,0,0.5-0.3,0.6-0.6c0-0.4-0.4-0.6-0.7-0.6C736.4,97.7,736.1,98,736.1,98.3z M738.8,98.3c0,0.4,0.3,0.7,0.7,0.7l0,0
	c0.4,0,0.7-0.3,0.7-0.7s-0.3-0.7-0.7-0.7C739.1,97.6,738.8,97.9,738.8,98.3L738.8,98.3L738.8,98.3z M738.1,111
	c-3-0.1-5.4-2.6-5.3-5.6c0.1-3,2.6-5.4,5.6-5.3c3,0.1,5.3,2.5,5.3,5.5c0,3-2.3,5.4-5.3,5.5C738.3,111,738.2,111,738.1,111L738.1,111
	z M738.1,110c2.5,0,4.4-2.1,4.4-4.5c0-2.5-2.1-4.4-4.5-4.4c-2.4,0-4.4,2-4.4,4.5c-0.1,2.4,1.8,4.4,4.3,4.5
	C737.9,110,738,110,738.1,110L738.1,110z M744.8,110.9h8.8v-1h-7.3l7.1-9v-0.8h-8.6v1h7l-7.1,9L744.8,110.9z M755.6,100.2h4
	c2.7,0,4.4,1.4,4.4,3.7s-1.7,3.7-4.4,3.7h-2.9v3.4h-1.1L755.6,100.2z M756.7,106.5h2.9c2.1,0,3.3-1,3.3-2.7s-1.1-2.7-3.3-2.7h-2.9
	L756.7,106.5z M765.3,105.5c-0.1-3.1,2.3-5.7,5.5-5.8c3.1-0.1,5.7,2.3,5.8,5.5c0.1,3.1-2.3,5.7-5.5,5.8c-0.1,0-0.1,0-0.2,0
	c-3,0.1-5.5-2.2-5.7-5.2C765.3,105.8,765.3,105.7,765.3,105.5L765.3,105.5z M766.4,105.5c0,2.5,2,4.6,4.4,4.6c2.5,0,4.6-2,4.6-4.4
	c0-2.5-2-4.6-4.4-4.6c0,0,0,0-0.1,0c-2.4-0.1-4.4,1.8-4.5,4.2C766.4,105.4,766.4,105.5,766.4,105.5L766.4,105.5z M780,102.2l6.9,8.7
	h1v-10.7h-1.1v8.7l-6.9-8.7h-1v10.8h1.1L780,102.2z M793.1,110.9h1.1v-9.8h3.8v-1h-8.7v1h3.8V110.9z M664.7,125.1H662l4.6,10.8h2.5
	l4.7-10.8h-2.5l-3.3,7.7L664.7,125.1z M682.8,127.1v-2h-8.1v10.8h8.3v-2h-5.8v-2.5h5v-1.9h-5v-2.3L682.8,127.1z M685,125.1v10.8h2.5
	v-4.4h4.9v4.4h2.5v-10.8h-2.5v4.2h-4.9v-4.2H685z M697.4,135.9h2.5v-10.8h-2.5L697.4,135.9z M707.7,127.1c1,0,2,0.5,2.7,1.3l1.6-1.5
	c-2-2.3-5.5-2.6-7.9-0.6c-2.3,2-2.6,5.5-0.6,7.9c2,2.3,5.5,2.6,7.9,0.6c0.2-0.2,0.4-0.4,0.6-0.6l-1.6-1.5c-0.7,0.8-1.7,1.3-2.7,1.3
	c-1.9,0-3.4-1.5-3.4-3.4S705.8,127.1,707.7,127.1L707.7,127.1z M716.1,125.1h-2.5v10.8h7.9v-2h-5.4V125.1z M731.1,127.1v-2h-8.1
	v10.8h8.3v-2h-5.9v-2.5h5v-1.9h-5v-2.3L731.1,127.1z M737.6,135.9h2.5v-10.8h-2.5V135.9z M752.5,135.9v-10.8H750v6.5l-5.3-6.5h-2
	v10.8h2.5v-6.5l5.4,6.5H752.5z M759.9,135.9H755v-10.8h4.8c3.5,0,5.9,2.1,5.9,5.4S763.4,135.9,759.9,135.9L759.9,135.9z
	 M763.3,130.5c0.1-1.8-1.3-3.3-3.1-3.4c-0.2,0-0.3,0-0.5,0h-2.3v6.7h2.3c1.8,0.2,3.3-1.1,3.5-2.9
	C763.3,130.8,763.3,130.6,763.3,130.5z M777.3,131.1v-6h-2.5v5.9c0,2-0.9,2.9-2.4,2.9c-1.5,0-2.4-0.9-2.4-2.9v-5.9h-2.5v6
	c0,3.2,1.8,4.9,4.9,4.9S777.4,134.3,777.3,131.1L777.3,131.1z M783.3,134.1c-1.3,0-2.5-0.4-3.5-1.1l-0.9,1.9
	c1.3,0.8,2.8,1.3,4.4,1.2c3.1,0,4.6-1.5,4.6-3.3c0-3.9-6.2-2.6-6.2-4.6c0-0.7,0.6-1.2,2-1.2c1.1,0,2.1,0.3,3,0.9l0.8-1.9
	c-1.1-0.6-2.4-1-3.7-1c-3.1,0-4.5,1.5-4.5,3.4c0,4,6.2,2.6,6.2,4.6C785.4,133.6,784.9,134.1,783.3,134.1L783.3,134.1z M791.7,135.9
	h2.5v-8.7h3.4v-2h-9.4v2h3.4V135.9z M801.4,135.9h-2.5v-10.8h4.7c2.9,0,4.7,1.5,4.7,3.9c0.1,1.5-0.8,2.9-2.2,3.4l2.4,3.5h-2.7
	l-2.1-3h-2.3V135.9z M801.4,130.9h2c1.5,0,2.3-0.7,2.3-1.9s-0.8-1.9-2.3-1.9h-2V130.9z M816.9,125.1l-2.9,4.8l-2.9-4.8h-2.6l4.2,6.9
	v3.8h2.5V132l4.2-6.9H816.9z M667.9,150.6l2.6,3.7h-1.2l-2.5-3.4c-0.3,0-0.6,0-0.9,0h-2.9v3.4H662v-10.7h4c2.7,0,4.4,1.4,4.4,3.7
	C670.5,148.8,669.5,150.2,667.9,150.6L667.9,150.6z M669.3,147.2c0-1.7-1.1-2.7-3.3-2.7h-2.9v5.4h2.9
	C668.1,149.9,669.3,148.9,669.3,147.2L669.3,147.2z M673.9,149.3h5.6v-1h-5.6v-3.8h6.2v-1h-7.4v10.8h7.6v-1h-6.5V149.3z
	 M683.1,146.4c0-1.1,0.9-2,2.8-2c1.1,0,2.1,0.3,3,0.9l0.4-0.9c-1-0.7-2.1-1-3.3-1c-2.7,0-4,1.4-4,3c0,4,6.6,2.2,6.6,5.1
	c0,1.1-0.9,1.9-2.9,1.9c-1.3,0-2.6-0.5-3.6-1.3l-0.4,0.9c1.1,1,2.5,1.4,4,1.4c2.8,0,4-1.4,4-2.9
	C689.7,147.5,683.1,149.3,683.1,146.4L683.1,146.4z M693,149.3h5.6v-1H693v-3.8h6.2v-1h-7.4v10.8h7.6v-1H693L693,149.3z
	 M706.2,143.5l4.9,10.8h-1.2l-1.3-2.9h-6l-1.3,2.9h-1.2l4.9-10.8H706.2z M708.2,150.5l-2.6-5.8l-2.5,5.7L708.2,150.5z M718.5,150.6
	l2.6,3.7h-1.2l-2.5-3.5c-0.3,0-0.6,0-0.9,0h-2.9v3.4h-1.1v-10.7h4c2.7,0,4.4,1.4,4.4,3.7C721,148.8,720,150.2,718.5,150.6
	L718.5,150.6z M719.8,147.3c0-1.7-1.1-2.7-3.3-2.7h-2.9v5.4h2.9C718.7,149.9,719.9,148.9,719.8,147.3L719.8,147.3z M728.1,144.5
	c1.2,0,2.3,0.4,3.2,1.3l0.7-0.7c-1-1.1-2.5-1.6-3.9-1.6c-3-0.1-5.6,2.2-5.7,5.2c-0.1,3,2.2,5.6,5.2,5.7c0.2,0,0.3,0,0.5,0
	c1.5,0.1,2.9-0.5,4-1.6l-0.7-0.7c-0.8,0.9-2,1.3-3.2,1.3c-2.5,0.1-4.5-1.8-4.7-4.2c-0.1-2.5,1.8-4.5,4.2-4.7
	C727.8,144.5,727.9,144.5,728.1,144.5L728.1,144.5z M741.9,148.4h-6.7v-4.8h-1.1v10.7h1.1v-5h6.7v5h1.1v-10.8H742L741.9,148.4z
	 M754.7,144.5c1.2,0,2.3,0.4,3.2,1.3l0.7-0.7c-1-1.1-2.5-1.6-3.9-1.6c-3-0.1-5.6,2.2-5.7,5.2c-0.1,3,2.2,5.6,5.2,5.7
	c0.2,0,0.3,0,0.5,0c1.5,0.1,2.9-0.5,4-1.6l-0.7-0.7c-0.8,0.9-2,1.3-3.2,1.3c-2.5,0.1-4.5-1.8-4.7-4.2c-0.1-2.5,1.8-4.5,4.2-4.7
	C754.5,144.5,754.6,144.5,754.7,144.5L754.7,144.5z M761.9,149.4h5.6v-1h-5.6v-3.9h6.2v-1h-7.4v10.8h7.6v-1h-6.5L761.9,149.4z
	 M778.6,152.3l-6.9-8.7h-0.9v10.7h1.2v-8.7l6.9,8.7h0.9v-10.8h-1.1V152.3z M781.2,144.6h3.8v9.8h1.1v-9.8h3.8v-1h-8.7L781.2,144.6z
	 M792.5,149.4h5.6v-1h-5.6v-3.9h6.2v-1h-7.4v10.8h7.6v-1h-6.5V149.4z M807.3,150.6l2.6,3.7h-1.2l-2.5-3.5c-0.3,0-0.6,0-0.9,0h-2.9
	v3.4h-1.1v-10.7h4c2.7,0,4.4,1.4,4.4,3.7C809.8,148.8,808.8,150.2,807.3,150.6L807.3,150.6z M808.6,147.3c0-1.7-1.1-2.7-3.3-2.7
	h-2.9v5.4h2.9C807.5,149.9,808.6,148.9,808.6,147.3L808.6,147.3z M685.2,117.3H662v1.4h23.2V117.3z"/>
<path id="sze_logo" class="st0" d="M89.1,127.1c0-1.8,0.2-2.2,2.2-2.4c14.8-0.9,27-7.1,36.2-18.7c6.3-7.9,9.9-17.7,10.2-27.8
	c0.1-2.3,2-2,3.4-2c2,0,1.6,1.2,1.6,2.4c-1.1,23.8-17.8,44.1-41,49.8c-3.3,0.8-6.7,1.3-10.1,1.4C89.2,129.8,89.1,129.8,89.1,127.1z
	 M132.9,78.4c0.1-1.2,0.2-2.3-1.6-2.3c-1.4,0-3.1-0.4-3.2,2c-0.1,4.1-0.9,8.1-2.5,11.9c-6.4,15.3-18,23.9-34.6,25
	c-2.3,0.2-1.8,2.1-1.8,3.3c0.1,1.7,0.9,1.7,2.1,1.6c2-0.1,4-0.3,5.9-0.7c19.2-3.4,34.2-20.1,35.6-39.4
	C132.8,79.3,132.8,78.9,132.9,78.4z M214.8,83.9c2.6,0.1,5,1,7,2.6l2.9-4.2c-1.3-1.1-2.9-2-4.5-2.5c-1.7-0.6-3.4-0.9-5.2-0.9
	c-2.4-0.1-4.7,0.6-6.6,2c-1.8,1.4-2.8,3.5-2.7,5.7c0,2.5,0.7,4.3,2.1,5.4c2,1.4,4.3,2.4,6.7,2.8c1.3,0.3,2.6,0.7,3.8,1.4
	c0.6,0.4,1,1.1,1,1.9c0,0.7-0.3,1.4-0.9,1.9c-0.7,0.5-1.6,0.7-2.5,0.7c-2.4,0-5-1.2-7.8-3.7l-3.5,4.2c3,2.9,7,4.5,11.1,4.6
	c2.5,0.1,4.9-0.7,6.9-2.2c1.7-1.4,2.7-3.5,2.6-5.7c0.1-2-0.6-3.9-2-5.3c-1.7-1.4-3.7-2.3-5.8-2.7c-1.6-0.3-3.2-0.8-4.7-1.6
	c-0.6-0.4-1-1.1-1-1.8c0-0.7,0.3-1.4,0.8-1.8C213.1,84.1,213.9,83.8,214.8,83.9L214.8,83.9z M250.4,105.4v-5.1h-13.8l13.6-16.9v-4
	h-21.2v5h13.2l-13.6,17v4L250.4,105.4z M255.5,79.4v26h19.2v-5.2h-13.4v-5.4H273v-5h-11.7v-5.4h13v-5.2L255.5,79.4z M272.2,72.6
	l-5.8-2.4l-4.8,6.6h5.3L272.2,72.6z M286.5,98.1c-1.5-1.6-2.3-3.7-2.2-5.8c-0.1-2.2,0.7-4.3,2.3-5.8c1.5-1.4,3.5-2.2,5.6-2.1
	c2.7,0,5.2,1.3,6.9,3.4l3.6-4.1c-2.7-3.2-6.6-5-10.7-4.9c-3.6-0.1-7.1,1.3-9.7,3.9c-5.3,5.3-5.3,13.9-0.1,19.3
	c5.7,5.3,14.6,5,19.9-0.6c0.2-0.2,0.3-0.4,0.5-0.5l-3.7-3.8c-1.7,2.2-4.3,3.4-7,3.4C289.8,100.3,287.9,99.5,286.5,98.1L286.5,98.1z
	 M323.3,90.3H313V79.4h-5.8v26.1h5.8V95.2h10.4v10.2h5.8v-26h-5.8V90.3z M335.5,79.4v26h19.2v-5.2h-13.4v-5.4H353v-5h-11.7v-5.4h13
	v-5.2L335.5,79.4z M378.1,96.2l-12.8-16.8h-5.4v26.1h5.8V89.1l12.4,16.3h5.8v-26h-5.8V96.2z M401.6,95.2l9-15.8h-6.3l-5.6,9.6
	l-5.6-9.7h-6.3l9,15.8v10.3h5.8V95.2z M413.4,105.5h5.8v-26h-5.8V105.5z M206.4,111.3v26h19.2v-5.2h-13.4v-5.4h11.7v-5h-11.7v-5.4
	h13v-5.1L206.4,111.3z M248.1,131.3c-1.5,0.8-3.3,1.2-5,1.2c-2,0-3.9-0.8-5.2-2.2c-2.9-3.4-2.9-8.5,0.1-11.9
	c1.5-1.5,3.5-2.3,5.6-2.2c1.1,0,2.2,0.2,3.2,0.6c1.2,0.5,2.3,1.2,3.2,2.1l3-4.4c-2.7-2.4-6.1-3.7-9.8-3.7c-3.6-0.1-7,1.3-9.6,3.9
	c-5.3,5.3-5.3,13.9-0.1,19.3c2.6,2.5,6,3.9,9.6,3.8c4.6,0,8.1-1.4,10.7-4.3v-9.2h-5.9L248.1,131.3z M270.3,127.1l9-15.8H273
	l-5.6,9.7l-5.6-9.7h-6.3l9,15.8v10.3h5.8L270.3,127.1z M282.5,111.3v26h19.2v-5.2h-13.4v-5.4H300v-5h-11.7v-5.4h13v-5.1L282.5,111.3
	z M325.7,116.3v-5h-20.6v5h7.4v21h5.8v-21H325.7z M330.4,111.3v26h19.2v-5.2h-13.4v-5.4h11.7v-5h-11.7v-5.4h13v-5.1L330.4,111.3z
	 M378.5,137.3h5.8v-26h-7.8l-6.8,14.2l-6.7-14.3h-7.9v26h5.8v-16.4l7,14.2h3.5l7-14.2L378.5,137.3z M205.7,153.9v-6.3h-1.9v6.3
	c-0.1,1.4,0.4,2.8,1.3,3.8c2,1.7,4.9,1.7,6.9,0c0.9-1,1.4-2.4,1.3-3.8v-6.3h-1.9v6.3c0.1,0.9-0.2,1.8-0.8,2.5
	c-0.5,0.6-1.3,0.9-2.1,0.9c-0.8,0-1.6-0.3-2.1-0.9C206,155.7,205.7,154.8,205.7,153.9z M224.9,156.1l-6.6-8.4h-1.9v11.3h1.9v-8.2
	l6.4,8.2h2.1v-11.3h-1.9V156.1z M229.9,158.9h1.9v-11.3h-1.9V158.9z M244.7,147.6h-2.1l-3.5,8.4l-3.5-8.4h-2.1l4.5,11.3h2.1
	L244.7,147.6z M246.3,147.6v11.3h8.1v-1.8h-6.2v-3h5.5v-1.7h-5.4v-3h6v-1.8L246.3,147.6z M264.8,148.5c-1.1-0.7-2.4-1-3.7-0.9h-4.2
	v11.3h1.9v-3.8h2.5l2.7,3.8h2.4l-3-4.1c1.6-0.4,2.6-1.9,2.4-3.5C266,150.2,265.6,149.2,264.8,148.5L264.8,148.5z M261.2,153.4h-2.4
	v-4h2.4c0.7-0.1,1.5,0.1,2.1,0.4c0.4,0.4,0.7,1,0.6,1.5c0.1,0.6-0.2,1.2-0.6,1.6C262.7,153.3,261.9,153.5,261.2,153.4L261.2,153.4z
	 M273.8,149.4c0.5,0.2,1,0.4,1.4,0.8l1-1.4c-0.5-0.4-1.2-0.8-1.9-1c-0.7-0.2-1.4-0.4-2.1-0.4c-1,0-2,0.3-2.8,0.9
	c-0.8,0.6-1.2,1.5-1.1,2.4c-0.1,0.9,0.3,1.8,1,2.3c0.3,0.3,0.7,0.5,1.1,0.7c0.6,0.2,1.2,0.4,1.9,0.6c0.6,0.1,1.2,0.3,1.8,0.7
	c0.3,0.2,0.5,0.6,0.5,1c0,0.4-0.2,0.8-0.5,1.1c-0.4,0.3-0.9,0.4-1.5,0.4c-1.3,0-2.6-0.6-3.6-1.5l-1.2,1.4c1.3,1.2,3,1.8,4.7,1.8
	c1.1,0,2.1-0.3,2.9-0.9c0.7-0.6,1.1-1.5,1.1-2.4c0.1-0.8-0.3-1.7-0.9-2.2c-0.8-0.6-1.7-1-2.6-1.2c-0.8-0.1-1.6-0.4-2.3-0.8
	c-0.3-0.2-0.5-0.6-0.5-1c0-0.4,0.2-0.8,0.5-1c0.4-0.2,0.9-0.4,1.4-0.3C272.6,149.2,273.2,149.2,273.8,149.4L273.8,149.4z
	 M278.8,158.9h1.9v-11.3h-1.9V158.9z M291.6,149.4v-1.8h-8.8v1.8h3.4v9.6h1.9v-9.6H291.6z M298.1,154.5l4.2-6.9h-2.1l-3.1,5.1
	l-3.1-5.1H292l4.2,6.9v4.5h1.9L298.1,154.5z M319.4,153.2c0-1.6-0.6-3.1-1.7-4.2c-2.4-2.2-6.1-2.2-8.5,0c-2.3,2.3-2.3,6,0,8.4
	c2.4,2.2,6.1,2.2,8.5,0C318.8,156.3,319.4,154.8,319.4,153.2L319.4,153.2z M317.4,153.2c0,1.1-0.4,2.1-1.1,2.9
	c-1.6,1.6-4.1,1.6-5.7,0c0,0,0,0,0,0c-1.5-1.6-1.5-4.2,0-5.8c1.6-1.6,4.1-1.6,5.7,0c0,0,0,0,0,0C317,151,317.4,152.1,317.4,153.2
	L317.4,153.2z M329.3,149.4v-1.8h-7.5v11.3h2v-4.7h5v-1.8h-5v-3.1H329.3z M343.8,156.5c-0.8,0.5-1.8,0.7-2.7,0.7c-1,0-2-0.4-2.7-1.1
	c-1.5-1.6-1.5-4.2,0-5.8c0.8-0.7,1.8-1.1,2.9-1.1c0.5,0,1.1,0.1,1.6,0.2c0.5,0.2,0.9,0.4,1.3,0.8l1-1.5c-1.1-1-2.6-1.5-4.1-1.4
	c-1.6,0-3.1,0.6-4.2,1.7c-2.3,2.3-2.3,6,0,8.4c1.1,1.1,2.6,1.7,4.2,1.6c1.7,0.1,3.4-0.5,4.6-1.8v-3.9h-1.9L343.8,156.5z
	 M352.5,154.5l4.2-6.9h-2l-3.1,5.2l-3.1-5.1h-2.1l4.2,6.9v4.5h1.9L352.5,154.5z M369.3,153.2c0-1.6-0.6-3.1-1.7-4.2
	c-2.4-2.2-6.1-2.2-8.5,0c-2.3,2.3-2.3,6,0,8.4c2.4,2.2,6.1,2.2,8.5,0C368.7,156.3,369.4,154.8,369.3,153.2L369.3,153.2z
	 M367.3,153.2c0,1.1-0.4,2.1-1.2,2.9c-1.6,1.6-4.1,1.6-5.7,0c0,0,0,0,0,0c-1.5-1.6-1.5-4.2,0-5.8c1.6-1.6,4.1-1.6,5.7,0c0,0,0,0,0,0
	C367,151,367.4,152.1,367.3,153.2L367.3,153.2z M379.6,148.5c-1.1-0.7-2.4-1-3.7-0.9h-4.2v11.3h2v-3.8h2.5l2.7,3.8h2.4l-3-4.1
	c1.6-0.4,2.6-1.9,2.4-3.5C380.8,150.2,380.4,149.2,379.6,148.5L379.6,148.5z M376,153.4h-2.3v-4h2.4c0.7-0.1,1.5,0.1,2.1,0.4
	c0.4,0.4,0.7,1,0.6,1.5c0.1,0.6-0.2,1.2-0.6,1.6C377.6,153.3,376.8,153.5,376,153.4L376,153.4z M171.9,80.3v-4.2
	c0-0.3-0.2-0.6-0.6-0.6c0,0,0,0,0,0h-19.2c-0.3,0-0.6,0.3-0.6,0.6c0,0,0,0,0,0v4.2c0,0.3,0.2,0.6,0.6,0.6c0,0,0,0,0,0h19.2
	C171.6,80.9,171.9,80.6,171.9,80.3C171.9,80.3,171.9,80.3,171.9,80.3z M171.9,90.1v-4.2c0-0.3-0.3-0.6-0.6-0.6c0,0,0,0,0,0h-19.2
	c-0.3,0-0.6,0.3-0.6,0.6l0,0v4.2c0,0.3,0.3,0.6,0.6,0.6h19.2C171.6,90.6,171.9,90.4,171.9,90.1z M171.9,99.8v-4.2
	c0-0.3-0.2-0.6-0.6-0.6c0,0,0,0,0,0h-19.2c-0.3,0-0.6,0.3-0.6,0.6c0,0,0,0,0,0v4.2c0,0.3,0.2,0.6,0.6,0.6c0,0,0,0,0,0h19.2
	C171.6,100.4,171.9,100.1,171.9,99.8C171.9,99.8,171.9,99.8,171.9,99.8L171.9,99.8z M171.9,109.6v-4.2c0-0.3-0.3-0.6-0.6-0.6
	c0,0,0,0,0,0h-19.2c-0.3,0-0.6,0.3-0.6,0.6l0,0v4.2c0,0.3,0.3,0.6,0.6,0.6h19.2C171.6,110.2,171.9,109.9,171.9,109.6z M171.9,119.3
	v-4.2c0-0.3-0.2-0.6-0.6-0.6c0,0,0,0,0,0h-19.2c-0.3,0-0.6,0.3-0.6,0.6c0,0,0,0,0,0v4.2c0,0.3,0.2,0.6,0.6,0.6c0,0,0,0,0,0h19.2
	C171.6,119.9,171.9,119.7,171.9,119.3C171.9,119.3,171.9,119.3,171.9,119.3z M171.9,129.1v-4.2c0-0.3-0.3-0.6-0.6-0.6c0,0,0,0,0,0
	h-19.2c-0.3,0-0.6,0.3-0.6,0.6l0,0v4.2c0,0.3,0.3,0.6,0.6,0.6h19.2C171.6,129.7,171.9,129.4,171.9,129.1
	C171.9,129.1,171.9,129.1,171.9,129.1z M171.9,138.8v-4.2c0-0.3-0.2-0.6-0.6-0.6c0,0,0,0,0,0h-19.2c-0.3,0-0.6,0.3-0.6,0.6
	c0,0,0,0,0,0v4.2c0,0.3,0.2,0.6,0.6,0.6c0,0,0,0,0,0h19.2C171.6,139.4,171.9,139.2,171.9,138.8C171.9,138.8,171.9,138.8,171.9,138.8
	z M171.9,148.6v-4.2c0-0.3-0.3-0.6-0.6-0.6c0,0,0,0,0,0h-19.2c-0.3,0-0.6,0.3-0.6,0.6l0,0v4.2c0,0.3,0.3,0.6,0.6,0.6h19.2
	C171.6,149.2,171.9,148.9,171.9,148.6L171.9,148.6z M171.9,158.3v-4.2c0-0.3-0.2-0.6-0.6-0.6c0,0,0,0,0,0h-19.2
	c-0.3,0-0.6,0.3-0.6,0.6c0,0,0,0,0,0v4.2c0,0.3,0.3,0.6,0.6,0.6l0,0h19.2C171.6,158.9,171.9,158.7,171.9,158.3
	C171.9,158.3,171.9,158.3,171.9,158.3L171.9,158.3z M141.9,138.8v-4.2c0-0.3-0.2-0.6-0.6-0.6c0,0,0,0,0,0H68.7
	c-0.3,0-0.6,0.2-0.6,0.6c0,0,0,0,0,0v4.2c0,0.3,0.2,0.6,0.6,0.6c0,0,0,0,0,0h72.7C141.7,139.4,141.9,139.2,141.9,138.8
	C141.9,138.8,141.9,138.8,141.9,138.8L141.9,138.8z M141.9,148.6v-4.2c0-0.3-0.3-0.6-0.6-0.6l0,0H91c-0.3,0-0.6,0.3-0.6,0.6v4.2
	c0,0.3,0.3,0.6,0.6,0.6h50.3C141.7,149.2,141.9,148.9,141.9,148.6L141.9,148.6z M141.9,158.3v-4.2c0-0.3-0.2-0.6-0.6-0.6
	c0,0,0,0,0,0H68.7c-0.3,0-0.6,0.2-0.6,0.6c0,0,0,0,0,0v4.2c0,0.3,0.3,0.6,0.6,0.6c0,0,0,0,0,0h72.7
	C141.7,158.9,141.9,158.7,141.9,158.3C141.9,158.4,141.9,158.3,141.9,158.3L141.9,158.3z M416.5,158.3v-4.2c0-0.3-0.2-0.6-0.6-0.6
	c0,0,0,0,0,0H390c-0.3,0-0.6,0.3-0.6,0.6c0,0,0,0,0,0v4.2c0,0.3,0.3,0.6,0.6,0.6h25.9C416.2,158.9,416.5,158.7,416.5,158.3
	C416.5,158.3,416.5,158.3,416.5,158.3L416.5,158.3z M366.2,144.3l-1.3-0.6l-1.4,2.7h1.4L366.2,144.3z M363.7,144.2l-1.3-0.5
	l-1.4,2.7h1.4L363.7,144.2z"/>
<path id="zone" class="st0" d="M1019.6,102.1c0,2.6-2.1,4.7-4.8,4.7c-2.6,0-4.7-2.1-4.7-4.7c0-2.6,2.1-4.7,4.7-4.7
	C1017.4,97.3,1019.6,99.5,1019.6,102.1C1019.6,102.1,1019.6,102.1,1019.6,102.1z M966.2,106.8c2.6,0,4.8-2.1,4.8-4.8
	s-2.1-4.8-4.8-4.8s-4.8,2.1-4.8,4.8c0,0,0,0,0,0C961.5,104.7,963.6,106.8,966.2,106.8C966.2,106.8,966.2,106.8,966.2,106.8z
	 M941.9,131c2.6,0,4.8-2.1,4.8-4.7c0-2.6-2.1-4.8-4.7-4.8s-4.8,2.1-4.8,4.7c0,0,0,0,0,0C937.2,128.9,939.3,131,941.9,131z
	 M941.9,106.8c2.6,0,4.8-2.1,4.8-4.7c0-2.6-2.1-4.8-4.7-4.8s-4.8,2.1-4.8,4.7c0,0,0,0,0,0C937.2,104.7,939.3,106.8,941.9,106.8z
	 M1014.8,147.1c-1.6,0-3.1,0.8-3.9,2.1h-16.4c-1.4-2.2-4.4-2.8-6.6-1.3c-0.5,0.3-1,0.8-1.3,1.3h-16.4c-1.5-2.2-4.4-2.8-6.6-1.3
	c-0.5,0.3-1,0.8-1.3,1.3h-14l18-18.2c2.6-0.1,4.6-2.1,4.7-4.7l19.2-19.5h0.3c2.6,0,4.7-2.1,4.7-4.7c0-0.1,0-0.3,0-0.4l19.5-19.8h0.1
	c2.6,0,4.8-2.1,4.8-4.7s-2.1-4.8-4.7-4.8c-1.7,0-3.2,0.8-4.1,2.2h-16.3c-1.4-2.2-4.3-2.9-6.5-1.5c-0.6,0.4-1.1,0.9-1.5,1.5h-16.3
	c-1.4-2.2-4.3-2.9-6.5-1.5c-0.6,0.4-1.1,0.9-1.5,1.5H946c-1.4-2.2-4.3-2.9-6.5-1.5c-2.2,1.4-2.9,4.3-1.5,6.5
	c1.4,2.2,4.3,2.9,6.5,1.5c0.6-0.4,1.1-0.9,1.5-1.5h16.2c1.4,2.2,4.3,2.9,6.5,1.5c0.6-0.4,1.2-0.9,1.5-1.5h16.2
	c1.4,2.2,4.3,2.9,6.5,1.6c0.6-0.4,1.2-0.9,1.6-1.6h15.4l-17.7,18c-0.5-0.2-1.1-0.3-1.7-0.3c-2.6,0-4.7,2.1-4.7,4.8
	c0,0.6,0.1,1.2,0.3,1.7l-17.9,18.1c-2.4-1.1-5.2-0.1-6.3,2.3c-0.6,1.3-0.6,2.8,0,4l-18.8,19c-2.5-0.7-5.1,0.8-5.8,3.3
	c-0.7,2.5,0.8,5.1,3.3,5.8c2.1,0.6,4.3-0.3,5.4-2.2h16.1c1.3,2.3,4.2,3,6.5,1.7c0.7-0.4,1.3-1,1.7-1.7h16.1c1.3,2.3,4.2,3,6.5,1.7
	c0.7-0.4,1.3-1,1.7-1.7h16.1c1.3,2.3,4.2,3,6.5,1.7c2.3-1.3,3-4.2,1.7-6.5C1018.1,148,1016.5,147.1,1014.8,147.1L1014.8,147.1z
	 M1014.8,121.5c-2.6,0-4.8,2.1-4.8,4.7c0,2.6,2.1,4.8,4.7,4.8s4.8-2.1,4.8-4.7c0,0,0,0,0,0C1019.6,123.6,1017.4,121.5,1014.8,121.5
	L1014.8,121.5z M990.5,121.5c-2.6,0-4.8,2.1-4.8,4.7c0,2.6,2.1,4.8,4.7,4.8s4.8-2.1,4.8-4.7c0,0,0,0,0,0
	C995.3,123.6,993.1,121.5,990.5,121.5L990.5,121.5z M1130.9,115.2c0,11.5-8,16.5-15.5,16.5c-8.4,0-14.9-6.2-14.9-16
	c0-10.4,6.8-16.5,15.4-16.5C1124.9,99.2,1130.9,105.7,1130.9,115.2L1130.9,115.2z M1106.3,115.5c0,6.8,3.9,11.9,9.4,11.9
	s9.4-5.1,9.4-12.1c0-5.3-2.6-11.9-9.3-11.9C1109.2,103.4,1106.3,109.6,1106.3,115.5z M1138.1,108.3c0-3.2-0.1-5.8-0.3-8.4h5l0.3,5.1
	h0.1c2.1-3.7,6-6,10.3-5.8c4.3,0,11,2.6,11,13.2V131h-5.7v-17.9c0-5-1.9-9.2-7.2-9.2c-4.5,0.1-8.1,3.9-8,8.4V131h-5.7L1138.1,108.3z
	 M1176.8,116.5c0.1,7.6,5,10.8,10.7,10.8c2.9,0.1,5.9-0.5,8.6-1.6l1,4c-3.3,1.4-6.8,2-10.3,1.9c-9.6,0-15.3-6.3-15.3-15.7
	s5.5-16.8,14.6-16.8c10.1,0,12.8,8.9,12.8,14.6c0,0.9-0.1,1.8-0.2,2.6L1176.8,116.5z M1193.4,112.5c0.1-3.6-1.5-9.2-7.8-9.2
	c-5.7,0-8.2,5.3-8.7,9.2H1193.4z M1093.2,100.7l-9.3,18.4h10.7V131h-29.2l9.2-18.4h-9.6v-11.9H1093.2z"/>
</svg>
